<?xml version="1.0" encoding="UTF-8" standalone="no"?>
<svg width="621px" height="202px" viewBox="0 0 621 202" version="1.1" xmlns="http://www.w3.org/2000/svg" xmlns:xlink="http://www.w3.org/1999/xlink">
    <!-- Generator: Sketch 46.2 (44496) - http://www.bohemiancoding.com/sketch -->
    <title>Page 1</title>
    <desc>Created with Sketch.</desc>
    <defs></defs>
    <g id="Page-1" stroke="none" stroke-width="1" fill="none" fill-rule="evenodd">
        <g>
            <polygon id="Fill-1" fill="#CC0033" points="0 201.478 620.175 201.478 620.175 0 0 0"></polygon>
            <path d="M133.9121,81.4253 L133.5571,60.3793 L119.1921,81.4253 L133.9121,81.4253 Z M129.0611,41.7663 L149.7761,41.7663 L154.8561,104.3143 L134.2741,104.3143 L134.1321,94.1323 L110.5621,94.1323 L103.5991,104.3143 L82.6041,104.3143 L129.0611,41.7663 Z" id="Fill-2" fill="#FFCC00"></path>
            <g id="Group-55" transform="translate(40.000000, 39.478000)">
                <path d="M148.9595,32.2754 C147.0515,31.6324 145.3635,31.2674 143.7875,31.2674 C139.2685,31.2674 135.1825,34.9314 133.6435,40.4294 C132.2445,45.7444 134.5355,49.1324 139.4655,49.1324 C140.9025,49.1324 141.5105,48.8594 143.7835,48.3104 L148.9595,32.2754 Z M155.2525,64.8004 L129.8305,64.8004 C117.7295,64.8004 112.8655,54.9064 117.2235,40.2484 C121.5825,25.4964 132.5335,15.6024 144.4125,15.6024 C147.6785,15.6024 150.5165,16.1504 153.6845,17.6154 L158.6705,2.3164 L175.4125,2.3164 L155.2525,64.8004 Z" id="Fill-3" fill="#FFCC00"></path>
                <polygon id="Fill-5" fill="#FFCC00" points="171.5454 16.4243 189.4944 16.4243 187.6644 42.1723 204.9474 16.4243 220.1604 16.4243 186.1914 64.8003 172.4284 64.8003"></polygon>
                <path d="M231.8853,45.0859 C227.6393,47.6929 222.3243,47.2459 220.6453,52.6039 C219.8423,55.1329 220.8093,56.9919 223.0043,56.9919 C225.1373,56.9919 226.7113,55.9529 229.1553,54.3149 C229.1883,53.4219 229.4283,52.4529 230.0413,50.6679 L231.8853,45.0859 Z M242.4203,65.4429 C233.8653,66.0819 230.0373,65.0759 228.8213,60.9529 C223.7973,64.0679 220.2543,65.6249 215.0243,65.6249 C205.5243,65.6249 203.3153,60.0369 205.3153,53.8069 C206.2273,50.8729 208.3463,47.9409 211.1703,45.5589 C217.3153,40.4299 229.0473,39.6969 234.8263,35.7579 C236.1153,31.3589 234.7053,28.8459 230.0553,29.8009 C224.0843,31.0249 221.2523,32.6929 212.4343,38.0469 L216.9813,23.8459 C224.7523,19.0259 231.2523,16.1939 238.9903,15.6019 C248.7813,14.8519 256.6143,20.1819 252.7033,32.3669 L248.2563,46.1089 C246.7093,50.9649 246.5743,52.4319 251.3213,52.5229 L242.4203,65.4429 Z" id="Fill-7" fill="#FFCC00"></path>
                <path d="M264.4424,16.4243 L281.1864,16.4243 L279.1024,22.7463 C285.3274,17.6153 289.7474,15.6023 295.0594,15.6023 C304.3974,15.6023 307.5404,22.1063 304.0874,32.8243 L293.8194,64.8003 L277.0774,64.8003 L285.6144,38.3223 C287.1614,33.4663 286.3564,31.2673 283.0574,31.2673 C280.3994,31.2673 277.6824,32.9163 274.6534,36.4903 L265.5674,64.8003 L248.8244,64.8003 L264.4424,16.4243 Z" id="Fill-9" fill="#FFCC00"></path>
                <path d="M334.2451,62.6016 C327.9621,64.8926 324.3131,65.6246 319.7251,65.6246 C305.4771,65.6246 298.8501,55.4556 303.5691,40.8886 C307.4741,28.7926 318.8231,15.6016 335.3231,15.6016 C339.8311,15.6016 344.4701,16.4246 348.2721,18.0746 L343.0971,34.1076 C340.0261,32.1836 336.9231,31.2676 333.3801,31.2676 C327.4231,31.2676 322.1321,35.1156 320.3171,40.7036 C318.5871,46.2016 321.6691,49.9586 327.8661,49.9586 C331.0051,49.9586 334.0151,49.1326 339.2451,46.9356 L334.2451,62.6016 Z" id="Fill-11" fill="#FFCC00"></path>
                <path d="M373.1846,36.125 C375.1166,30.051 374.0676,26.936 369.9636,26.936 C366.2686,26.936 363.1666,29.662 361.4246,36.125 L373.1846,36.125 Z M381.5396,57.627 C374.6516,63.914 368.0576,65.625 359.9306,65.625 C345.2806,65.625 339.3296,54.541 343.8706,40.43 C348.4956,26.229 361.2806,15.602 373.8346,15.602 C386.7956,15.602 392.6496,26.48 386.0436,43.236 L359.0866,43.236 C357.6186,48.184 360.4166,52.857 366.8566,52.857 C371.3646,52.857 378.5616,51.18 384.8816,47.184 L381.5396,57.627 Z" id="Fill-13" fill="#FFCC00"></path>
                <path d="M216.1919,92.2275 C221.3369,92.2275 224.2149,89.7425 225.5179,85.7405 C226.8209,81.6645 225.5179,79.4555 220.2389,79.4555 L216.2619,79.4555 L212.1469,92.2275 L216.1919,92.2275 Z M201.4879,69.1365 L228.0909,69.1365 C242.9849,69.1365 245.8419,77.1695 243.2079,85.5815 C240.5769,93.6905 232.6049,102.7155 216.3559,102.7155 L208.7819,102.7155 L202.7799,121.3095 L184.6189,121.3095 L201.4879,69.1365 Z" id="Fill-15" fill="#FFCC00"></path>
                <path d="M43.48,102.2139 L43.183,84.6599 L31.201,102.2139 L43.48,102.2139 Z M39.434,69.1349 L56.711,69.1349 L60.95,121.3059 L43.783,121.3059 L43.665,112.8139 L24.005,112.8139 L18.195,121.3059 L0.686,121.3059 L39.434,69.1349 Z" id="Fill-17" fill="#FFCC00"></path>
                <path d="M255.7036,104.8311 C252.1626,107.0071 247.7286,106.6321 246.3286,111.1041 C245.6586,113.2141 246.4656,114.7651 248.2976,114.7651 C250.0766,114.7651 251.3916,113.8951 253.4266,112.5301 C253.4536,111.7841 253.6526,110.9771 254.1646,109.4891 L255.7036,104.8311 Z M264.4916,121.8131 C257.3556,122.3431 254.1626,121.5071 253.1486,118.0651 C248.9576,120.6651 246.0046,121.9641 241.6396,121.9641 C233.7176,121.9641 231.8746,117.3021 233.5426,112.1061 C234.3036,109.6611 236.0716,107.2141 238.4266,105.2271 C243.5556,100.9481 253.3386,100.3391 258.1586,97.0501 C259.2326,93.3821 258.0576,91.2841 254.1766,92.0811 C249.1996,93.1041 246.8346,94.4931 239.4806,98.9601 L243.2736,87.1151 C249.7546,83.0961 255.1746,80.7321 261.6336,80.2381 C269.7976,79.6131 276.3306,84.0601 273.0696,94.2221 L269.3626,105.6851 C268.0716,109.7371 267.9576,110.9581 271.9146,111.0361 L264.4916,121.8131 Z" id="Fill-19" fill="#FFCC00"></path>
                <path d="M100.3984,106.4502 C99.1864,110.1922 100.6074,111.7202 104.3494,110.4232 L97.2374,121.2742 C94.9334,121.8112 93.1814,121.9622 90.9644,121.9622 C85.5924,121.9622 83.7144,120.0522 84.2354,115.0092 C79.4294,119.6692 74.7134,121.9622 69.8764,121.9622 C63.9664,121.9622 58.9254,118.4482 62.7124,106.6772 L71.0434,80.9242 L85.0124,80.9242 L77.9664,102.7802 C76.5344,107.0552 77.2724,108.8952 80.1614,108.8952 C82.2434,108.8952 84.2344,107.6732 86.9614,104.7662 L94.6834,80.9242 L108.6524,80.9242 L100.3984,106.4502 Z" id="Fill-21" fill="#FFCC00"></path>
                <path d="M131.0542,117.4541 C126.4442,120.5111 122.0902,121.9621 117.3892,121.9621 C113.1582,121.9621 109.3812,120.5871 107.7412,117.6831 C106.4822,115.3881 106.6552,112.4871 108.4672,106.9851 L113.6182,91.0111 L107.4402,91.0111 L109.0332,86.0451 L131.5572,68.8501 L134.7122,68.8501 L130.8462,80.9241 L142.0632,80.9241 L138.8052,91.0111 L127.5882,91.0111 L123.6552,103.0871 C122.4442,106.8311 123.2582,108.4341 126.1462,108.4341 C128.4962,108.4341 131.4202,107.4421 134.9922,105.3021 L131.0542,117.4541 Z" id="Fill-23" fill="#FFCC00"></path>
                <path d="M155.8579,108.8955 C159.9559,108.8955 163.7659,105.6845 165.2779,101.1005 C166.7209,96.5105 164.9589,93.3035 160.8619,93.3035 C156.7649,93.3035 152.8869,96.5105 151.4429,101.1005 C149.9319,105.6845 151.7619,108.8955 155.8579,108.8955 M165.0339,80.2365 C180.1439,80.2365 182.3579,91.3195 179.2479,101.1005 C175.7649,111.7955 165.8579,121.9615 151.7549,121.9615 C136.6429,121.9615 134.2929,110.9565 137.4749,101.1005 C140.8079,90.7045 150.3949,80.2365 165.0339,80.2365" id="Fill-25" fill="#FFCC00"></path>
                <path d="M369.6924,94.1436 C366.5044,91.3196 363.9284,90.0946 361.3114,90.0946 C359.3644,90.0946 357.6414,91.2416 357.1144,92.8446 C355.8234,96.8956 363.0404,95.9776 366.0044,101.4056 C367.2004,103.5436 367.5614,106.5246 366.5034,109.7356 C364.9074,114.7786 359.1374,121.9616 348.9304,121.9616 C343.2214,121.9616 338.0344,120.5866 335.0324,118.0656 L338.6784,106.6006 C342.0264,110.5756 344.7214,112.1046 348.0814,112.1046 C350.2994,112.1046 352.1494,111.0346 352.7604,108.9716 C354.4244,103.9246 339.5104,104.0026 343.3744,92.0796 C345.0384,86.9606 350.3254,80.2366 361.4694,80.2366 C366.5064,80.2366 369.6314,81.1526 373.1694,83.5216 L369.6924,94.1436 Z" id="Fill-27" fill="#FFCC00"></path>
                <path d="M296.0928,80.9531 L292.6068,91.7291 L292.7388,91.7291 C297.6538,84.1641 302.8328,80.2661 307.7338,80.2661 C310.4228,80.2661 312.8038,81.2581 315.3448,83.3981 L304.0128,99.4481 C302.5518,97.0771 301.0458,96.0851 299.0968,96.0851 C295.6728,96.0851 292.0378,99.9071 289.7878,104.5691 L284.4048,121.3061 L270.4368,121.3061 L283.4638,80.9531 L296.0928,80.9531 Z" id="Fill-29" fill="#FFCC00"></path>
                <path d="M327.8389,68.832 L312.1909,91.042 L315.3819,91.013 L310.2299,106.985 C308.4149,112.487 308.2429,115.388 309.5049,117.683 C311.1439,120.587 314.9209,121.962 319.1549,121.962 C323.8529,121.962 328.2079,120.511 332.8159,117.454 L336.7529,105.302 C333.1829,107.442 330.2609,108.435 327.9069,108.435 C325.0169,108.435 324.2039,106.831 325.4189,103.087 L329.3509,91.013 L340.5679,91.013 L343.8229,80.924 L332.6089,80.924 L336.4779,68.85 L327.8389,68.832 Z" id="Fill-31" fill="#FFCC00"></path>
                <polygon id="Fill-33" fill="#FFCC00" points="386.4268 121.2939 424.9478 2.2879 408.3998 2.2879 369.8998 121.2939"></polygon>
                <path d="M417.6455,54.3223 L412.8795,69.1273 L410.4915,73.6133 L402.8055,97.4953 L402.2885,102.0303 L396.4655,120.1143 C396.4655,120.1143 404.6685,122.7063 418.7685,124.1163 L424.8445,125.9543 C431.6225,126.4263 437.5285,126.4543 444.1105,125.8703 C447.9775,125.5263 452.3745,124.2473 457.0025,122.9153 L464.2865,119.7703 C467.5045,119.0513 470.7435,118.5753 473.8935,118.6613 C484.1515,118.9423 488.6005,119.0913 488.6005,119.0913 L493.6985,103.2603 L496.8315,96.4343 L504.5065,72.5763 L505.9185,65.2973 L509.8685,53.0323 L512.1845,48.7173 L519.8685,24.8713 L519.8955,21.9433 L526.1705,2.3953 C526.1705,2.3953 521.6595,2.2503 511.4595,1.8073 C507.6065,1.6403 503.6205,2.4093 499.6965,3.4673 L495.3055,3.7853 C490.6965,5.2163 486.2935,6.6453 482.4465,7.0133 C475.8275,7.6423 469.8995,7.6123 463.0865,7.1113 L456.7115,7.6693 C442.3835,6.1883 434.0305,3.4183 434.0305,3.4183 L427.8405,22.6473 L425.8485,25.9153 L418.1655,49.7673 L417.6455,54.3223 Z" id="Fill-35" fill="#000000"></path>
                <path d="M447.8467,54.4297 C454.6477,54.9067 460.5187,54.9337 467.1257,54.3437 C471.0167,53.9937 475.4307,52.5727 480.0987,51.1657 L487.7587,27.3027 C483.1297,28.6997 478.6517,30.1427 474.7937,30.4827 C468.1847,31.0747 462.3307,31.0277 455.5227,30.5547 L447.8467,54.4297 Z" id="Fill-37" fill="#FFFFFF"></path>
                <path d="M432.4814,102.1475 C439.3014,102.6275 445.1804,102.6475 451.7934,102.0575 C455.6654,101.7105 460.0884,100.2725 464.7394,98.8745 L472.4074,75.0355 C467.7584,76.4315 463.3384,77.8555 459.4674,78.1995 C452.8774,78.7895 446.9754,78.7465 440.1904,78.2755 L432.4814,102.1475 Z" id="Fill-39" fill="#FFFFFF"></path>
                <path d="M495.3057,3.7852 L487.7587,27.3032 C493.3447,25.6232 499.2217,24.2392 504.8347,24.4132 C515.3137,24.7312 519.8677,24.8712 519.8677,24.8712 L527.5287,1.1482 C527.5287,1.1482 523.1177,1.0482 512.4917,0.5522 C506.8687,0.2882 500.8977,2.0002 495.3057,3.7852" id="Fill-41" fill="#FFFFFF"></path>
                <path d="M402.8057,97.4951 C402.8057,97.4951 411.4467,100.1841 426.2237,101.6141 C428.4207,101.8271 430.4757,102.0091 432.4817,102.1471 L424.8447,125.9541 C422.8277,125.8171 420.7437,125.6341 418.5417,125.4191 C403.7647,123.9951 395.1457,121.2721 395.1457,121.2721 L402.8057,97.4951 Z" id="Fill-43" fill="#FFFFFF"></path>
                <path d="M455.5225,30.5547 L463.0855,7.1107 C461.1025,6.9667 459.0425,6.7797 456.8795,6.5587 C442.0985,5.0547 433.4795,2.1957 433.4795,2.1957 L425.8485,25.9147 C425.8485,25.9147 434.4525,28.6117 449.2215,30.0427 C451.4325,30.2537 453.5125,30.4097 455.5225,30.5547" id="Fill-45" fill="#FFFFFF"></path>
                <path d="M410.4912,73.6133 L418.1652,49.7673 C418.1652,49.7673 426.7782,52.4703 441.5552,53.8963 C443.7622,54.1133 445.8272,54.2913 447.8462,54.4293 L440.1902,78.2753 C438.1732,78.1343 436.1062,77.9683 433.8952,77.7583 C419.1202,76.3303 410.4912,73.6133 410.4912,73.6133" id="Fill-47" fill="#FFFFFF"></path>
                <path d="M496.8311,96.4346 C496.8311,96.4346 492.2961,96.3116 481.8351,95.9816 C476.2041,95.8096 470.3291,97.1886 464.7391,98.8736 L457.0031,122.9146 C462.5951,121.2336 468.5281,119.6846 474.1551,119.7896 C484.7591,119.9916 489.1631,120.2296 489.1631,120.2296 L496.8311,96.4346" id="Fill-49" fill="#FFFFFF"></path>
                <path d="M472.4072,75.0352 L480.0982,51.1662 C485.6882,49.4882 491.5482,48.1212 497.1732,48.2652 C507.6412,48.5472 512.1842,48.7172 512.1842,48.7172 L504.5072,72.5762 C504.5072,72.5762 500.1392,72.4062 489.5052,72.1252 C483.8742,71.9802 478.0072,73.3492 472.4072,75.0352" id="Fill-51" fill="#FFFFFF"></path>
                <path d="M534.3076,4.627 L534.3076,2.981 L535.4016,2.981 C535.9596,2.981 536.5596,3.1 536.5596,3.756 C536.5596,4.57 535.9536,4.627 535.2686,4.627 L534.3076,4.627 Z M534.3076,5.311 L535.2336,5.311 L536.6376,7.615 L537.5346,7.615 L536.0266,5.268 C536.8056,5.172 537.4056,4.756 537.4056,3.805 C537.4056,2.76 536.7866,2.289 535.5286,2.289 L533.5026,2.289 L533.5026,7.615 L534.3076,7.615 L534.3076,5.311 Z M535.2786,9.564 C537.7896,9.564 539.9406,7.615 539.9406,4.939 C539.9406,2.289 537.7896,0.342 535.2786,0.342 C532.7376,0.342 530.5906,2.289 530.5906,4.939 C530.5906,7.615 532.7376,9.564 535.2786,9.564 L535.2786,9.564 Z M531.5286,4.939 C531.5286,2.76 533.1726,1.109 535.2786,1.109 C537.3666,1.109 539.0106,2.76 539.0106,4.939 C539.0106,7.162 537.3666,8.797 535.2786,8.797 C533.1726,8.797 531.5286,7.162 531.5286,4.939 L531.5286,4.939 Z" id="Fill-53" fill="#FFFFFF"></path>
            </g>
        </g>
    </g>
</svg>