<?xml version="1.0" encoding="UTF-8"?>
<!DOCTYPE svg PUBLIC "-//W3C//DTD SVG 1.1//EN" "http://www.w3.org/Graphics/SVG/1.1/DTD/svg11.dtd">
<!-- Creator: CorelDRAW 2019 (64-Bit) -->
<svg xmlns="http://www.w3.org/2000/svg" xml:space="preserve" width="180.627mm" height="55.0951mm" version="1.1" style="shape-rendering:geometricPrecision; text-rendering:geometricPrecision; image-rendering:optimizeQuality; fill-rule:evenodd; clip-rule:evenodd"
viewBox="0 0 180.6274 55.0951"
 xmlns:xlink="http://www.w3.org/1999/xlink"
 xmlns:xodm="http://www.corel.com/coreldraw/odm/2003">
 <defs>
  <style type="text/css">
   <![CDATA[
    .fil0 {fill:#E41D2C}
    .fil1 {fill:#126AB2}
   ]]>
  </style>
 </defs>
 <g id="Layer_x0020_1">
  <metadata id="CorelCorpID_0Corel-Layer"/>
  <g id="_723299056">
   <path class="fil0" d="M58.7195 34.1881c0,-11.5485 9.3652,-20.9169 20.9078,-20.9169 11.5488,0 20.9123,9.3684 20.9123,20.9169 0,11.5562 -9.3645,20.907 -20.9123,20.907 -11.5426,0 -20.9078,-9.3499 -20.9078,-20.907zm20.891 9.5987l0 0c5.2939,0 9.5803,-4.2908 9.5803,-9.59 0,-5.2942 -4.2864,-9.5898 -9.5803,-9.5898 -5.3026,0 -9.581,4.2956 -9.581,9.5898 0,5.2992 4.2784,9.59 9.581,9.59z"/>
   <path class="fil1" d="M-0 0l17.4836 0 9.8814 33.1183 0.1411 0 10.0408 -33.1183 17.0063 0 0 53.9432 -11.2441 0 0 -38.1486 -0.1495 0 -10.7841 38.1486 -10.3318 0 -10.642 -38.1486 -0.1498 0 0 38.1486 -11.2519 0 0 -53.9432zm151.9102 10.6332l0 0 11.2441 0 0 -10.6332 -11.2441 0 0 10.6332zm0 43.31l0 0 11.2441 0 0 -39.5181 -11.2441 0 0 39.5181zm17.4745 0l0 0 11.2427 0 0 -53.9432 -11.2427 0 0 53.9432zm-64.1295 0l0 0 11.2388 0 0 -3.5004c2.89,3.1946 6.5353,4.4147 10.7919,4.4147 11.3231,0 19.913,-9.4924 19.913,-20.5946 0,-11.0838 -8.516,-20.7394 -19.913,-20.7394 -4.1016,0 -7.6672,1.2862 -10.7919,3.9547l0 -17.4782 -11.2388 0 0 53.9432zm11.3761 -19.7464l0 0c0,-5.2942 4.2813,-9.5898 9.5808,-9.5898 5.2984,0 9.5859,4.2956 9.5859,9.5898 0,5.2992 -4.2875,9.59 -9.5859,9.59 -5.2995,0 -9.5808,-4.2908 -9.5808,-9.59z"/>
  </g>
 </g>
</svg>
